<svg id="OBJECTS" xmlns="http://www.w3.org/2000/svg" xmlns:xlink="http://www.w3.org/1999/xlink" viewBox="0 0 476.38 305.1"><defs><style>.cls-1{fill:#c0fdff;}.cls-2{fill:#7fdeff;}.cls-3{fill:url(#linear-gradient);}.cls-4{fill:url(#linear-gradient-2);}.cls-5{fill:url(#linear-gradient-3);}.cls-6{fill:url(#linear-gradient-4);}.cls-7{fill:url(#linear-gradient-5);}.cls-8{fill:url(#linear-gradient-6);}.cls-9{fill:url(#linear-gradient-7);}.cls-10{fill:url(#linear-gradient-8);}.cls-11{fill:url(#linear-gradient-9);}.cls-12{fill:url(#linear-gradient-10);}.cls-13{fill:url(#linear-gradient-11);}.cls-14{fill:url(#linear-gradient-12);}.cls-15{fill:url(#linear-gradient-13);}.cls-16{fill:url(#linear-gradient-14);}.cls-17{fill:url(#linear-gradient-15);}.cls-18{fill:url(#linear-gradient-16);}</style><linearGradient id="linear-gradient" x1="325.72" y1="222.73" x2="375.68" y2="222.73" gradientUnits="userSpaceOnUse"><stop offset="0" stop-color="#e01e37"/><stop offset="1" stop-color="#f6c0ba"/></linearGradient><linearGradient id="linear-gradient-2" x1="91.8" y1="155.04" x2="362.15" y2="155.04" xlink:href="#linear-gradient"/><linearGradient id="linear-gradient-3" x1="317.33" y1="197.57" x2="356.44" y2="197.57" xlink:href="#linear-gradient"/><linearGradient id="linear-gradient-4" x1="290.81" y1="263.01" x2="344.74" y2="263.01" xlink:href="#linear-gradient"/><linearGradient id="linear-gradient-5" x1="302.18" y1="164.6" x2="338.57" y2="164.6" xlink:href="#linear-gradient"/><linearGradient id="linear-gradient-6" x1="269.32" y1="311.06" x2="328.06" y2="311.06" xlink:href="#linear-gradient"/><linearGradient id="linear-gradient-7" x1="231.8" y1="218.25" x2="320.05" y2="218.25" xlink:href="#linear-gradient"/><linearGradient id="linear-gradient-8" x1="248.06" y1="356.99" x2="315.25" y2="356.99" xlink:href="#linear-gradient"/><linearGradient id="linear-gradient-9" x1="200.7" y1="314.8" x2="288.03" y2="314.8" xlink:href="#linear-gradient"/><linearGradient id="linear-gradient-10" x1="251.74" y1="169.55" x2="288.02" y2="169.55" xlink:href="#linear-gradient"/><linearGradient id="linear-gradient-11" x1="229.62" y1="201.9" x2="257.95" y2="201.9" xlink:href="#linear-gradient"/><linearGradient id="linear-gradient-12" x1="126.99" y1="232.61" x2="235.42" y2="232.61" xlink:href="#linear-gradient"/><linearGradient id="linear-gradient-13" x1="99.85" y1="178.17" x2="213.54" y2="178.17" xlink:href="#linear-gradient"/><linearGradient id="linear-gradient-14" x1="152.69" y1="323.52" x2="222.58" y2="323.52" xlink:href="#linear-gradient"/><linearGradient id="linear-gradient-15" x1="132.91" y1="292.92" x2="153.23" y2="292.92" xlink:href="#linear-gradient"/><linearGradient id="linear-gradient-16" x1="98.77" y1="244.92" x2="132.99" y2="244.92" xlink:href="#linear-gradient"/></defs><title>LifeStealLogo</title><path class="cls-1" d="M477.73,241.76c1,9-.5,17-11.17,16.42-9.12-.54-18.69-4.1-27-7.75-4-1.76-8.06,3.94-4.26,6.68,7.08,5.12,10.62,19.8,1,24.38-7.41,3.52-18-1.54-25-4.18-2.34-.88-5.7.69-5.18,3.63,1.14,6.26-3.06,12.68-10.18,12-5.39-.53-10.24-5.88-14-9.37-3.05-2.83-8,.14-7.71,4,1.22,14.16-19.66,9.54-26.47,4.08,3.43-5.74,6.67-11.61,9.62-17.66,2.86-5.8,5.55-11.91,8-18.22,1.1,4.59,3.78,8.25,9.29,8.65,10.29.72,14.49-9.34,16.71-18.46,4.09,4.72,9.6,7.79,16,3.9,5.45-3.31,8.05-9.57,9.09-16,3.31,3,7.43,4.68,12.48,3.29,8.67-2.38,13-11.33,13.06-19.65,0-3.42-4.58-3.47-6-1.06-4.65,8.08-12.09,21.07-19.33,6.19a3.58,3.58,0,0,0-6.89,1.57c0,5.28-.69,11.85-4.08,16.14-5.32,6.76-9.79,1.16-13.3-4.56-1.52-2.5-5.38-1.3-5.9,1.32-1.22,6.16-2.13,15.87-7.94,19.51-4.7,3-7.27,1.09-8.74-2.37a26.35,26.35,0,0,1-1.55-6.46c4.9-14.6,8.11-30,8-45.17,21.34-25.77,58.22-21,81.84.19A61.53,61.53,0,0,1,477.73,241.76Z" transform="translate(-11.81 -97.45)"/><path class="cls-1" d="M155.82,314.29a3.48,3.48,0,0,0-.37.69c-2.27,5.81-4.06,9.28-10.41,6.24a29.5,29.5,0,0,1-10.8-9.53c-2.55-3.61-7.3-1.77-8.44,1.89-2.33,7.53-5.14,23.22-15.5,23.13-9.39-.08-9.88-14.46-10.71-21.32-.48-3.91-6.25-5.33-7.91-1.39-2.89,6.93-15.87,31.43-26,21.11-6.91-7.05-3.3-22.37-2.12-30.89.79-5.73-7.33-10.79-11.1-5.17-5.53,8.23-27.83,35.12-32.34,13-2.48-12.13,1.53-26,4.91-37.68,4.55-15.6,12.14-33,26.09-42.31a34.68,34.68,0,0,1,28.2-4.94c8.48,2.23,15.74,7.14,24.15,9.52,1.26,3.78,2.7,7.45,4.26,11a173.42,173.42,0,0,0,16.74,29.16,3.5,3.5,0,0,0-1.92,1.28c-3.07,3.83-5,8.34-10.47,5.29-3.07-1.72-5-6.13-6.35-9.12a2.86,2.86,0,0,0-5.18-.2c-1.77,3.11-5.09,9.09-9.26,8.38-4.4-.75-5.44-8.23-6-11.77a2.2,2.2,0,0,0-3.42-1.57c-5,3-12.55,13.22-18,8.35-5.93-5.33.62-17,5-21.91a.73.73,0,0,0-.81-1.15C59.47,257.8,52.19,271,56.93,280a11,11,0,0,0,11.35,5.7c6.28-1.18,8.49-7.62,12.88-11.18.57,6.09,2.54,13.17,9.07,14.6,5.72,1.26,9.86-2.79,12.7-7.4,2.34,4.55,5.62,8.86,10.42,10.25,7.07,2.05,12.86-3.51,15.11-9.72A381.52,381.52,0,0,0,155.82,314.29Z" transform="translate(-11.81 -97.45)"/><path class="cls-2" d="M157.92,312.34c-3.12-12.57-14.68-28.15-27-32.95a10.59,10.59,0,0,0-4.12-.73,58.87,58.87,0,0,0-8.37-15.44,9.33,9.33,0,0,0-4-3c-1.53-8.08-4.56-15.8-11-20-1.62-1-4.63-.23-4.17,2.19a203.3,203.3,0,0,1,3.32,24.18,9.52,9.52,0,0,0,.23,5l0,.1c.11,3.59.1,7.23-.1,10.94a181.53,181.53,0,0,1-1.91,20.84c-1.3,7.62-5.25,14.21-4.71,22.07a8.87,8.87,0,0,0,6.15,7.35c.52,4.92,6.78,9.13,11.13,5.29,5.15-4.56,9.45-9.32,12.63-15.53a38.87,38.87,0,0,0,2.47-6.45,10.26,10.26,0,0,0,6.05-.76c.82,1.61,1.61,3.23,2.35,4.85C143,333.59,161.36,326.21,157.92,312.34Z" transform="translate(-11.81 -97.45)"/><path class="cls-2" d="M412.06,274.39c-2.52-11.33-14.28-15.91-19.42-25.9-7-13.55-7-31-6.69-45.92.1-5.42-8.61-5.63-9.44-.41-1.5,9.52-2.8,19.21-2.6,28.8a7.6,7.6,0,0,0-3.22,2.91,254.16,254.16,0,0,0-17.14,35.95c-6.48,10.54-10.15,23.8,2.37,28.1,6.76,2.32,12.58-.31,17.26-5.25a21.64,21.64,0,0,0,5.34-3.56,16.31,16.31,0,0,0,7.71,4.71,15.47,15.47,0,0,0,6.15.48,14.46,14.46,0,0,0,6-1c6.76-2.56,8.24-8.37,6.39-13.24.33,0,.65.12,1,.14C408.79,280.41,412.88,278.12,412.06,274.39Z" transform="translate(-11.81 -97.45)"/><path d="M471.34,201.69c11.17,13.06,20.68,36.49,15.31,53.84-5.33,17.18-23.6,15-38.2,8.83,2.31,7,2.23,14.58-2.39,20.61-8.05,10.5-22.29,7.18-32.89,1.78-.8,6.45-3.7,12.13-10.48,14.94-8.23,3.42-15.34-.42-21.37-5.65-6.73,13-26.9,13.73-38.84,4a298.2,298.2,0,0,1-38.2,46.72c-17.36,17.5-45.83,44.38-73.17,38.19-13.78-3.12-24.52-13.86-33.46-24.19-9.67-11.15-18.85-22.38-29.07-33l-6-6.3c-1.57,6.85-6.09,12.35-14.37,11.29-5.86-.74-11-4.3-15.35-8.53-3.26,11.82-8.75,23.74-23.09,23.16-10.7-.44-15.1-8.2-17-17.07-6.5,12-15.47,23.63-30.33,16.56-9.5-4.51-12.68-15.35-13-26.24-10.15,8.66-23,14.89-32.13,4-10.12-12.08-3.78-34.27-.06-47.65,5.11-18.36,13.07-38.28,29-49.91a40.88,40.88,0,0,1,28.89-7.67c10.42,1.22,18.92,6.77,27,12.86-5.82-20-6.49-42.3,4.42-60.41,15.06-25,49.26-27.81,75.06-21.06,12.45,1.66,22.42,7.3,33,15.91.39.33.79.67,1.2,1,1.29,1,2.56,2.06,3.8,3.14,10.14,8.53,19.84,17.63,28.06,28,12.1-24.29,25.51-50.25,52.84-59.15,31.15-10.14,62.43,6.36,72,37.57a86.32,86.32,0,0,1,3.21,16C398.09,162.05,448.1,174.5,471.34,201.69Zm-4.78,56.49c10.67.62,12.22-7.39,11.17-16.42A61.53,61.53,0,0,0,458,202.84c-23.62-21.21-60.5-26-81.84-.19.14,15.15-3.07,30.57-8,45.17a26.35,26.35,0,0,0,1.55,6.46l-4.45,1.51c-2.43,6.31-5.12,12.42-8,18.22-3,6.05-6.19,11.92-9.62,17.66,6.81,5.46,27.69,10.08,26.47-4.08-.32-3.9,4.66-6.87,7.71-4,3.77,3.49,8.62,8.84,14,9.37,7.12.7,11.32-5.72,10.18-12-.52-2.94,2.84-4.51,5.18-3.63,7,2.64,17.6,7.7,25,4.18,9.65-4.58,6.11-19.26-1-24.38-3.8-2.74.25-8.44,4.26-6.68C447.87,254.08,457.44,257.64,466.56,258.18Zm-115.29-1.79c10.28-24.57,18.38-56.56,6.74-82.11-11.27-24.76-40.59-32.05-63.79-18.95-20.54,11.59-30.19,36-40.42,55.95-1.69,3.31-6.89,5.5-9.51,1.64-.52-.79-1.11-1.54-1.66-2.3a1.69,1.69,0,0,1-.88-1.17s0-.08-.05-.11c-9.13-12.36-21-23-32.32-33.18-9.26-8.25-18.36-14.55-29.38-18.57a89.41,89.41,0,0,0-16.66-2.75c-15.35-1-33.16,1.54-44.68,12.65-9.75,9.39-13.36,23.07-13.51,36.25-.64,56.6,53.07,94.65,87.35,132.22C207.65,352.56,224.41,378,250,368.5c22.92-8.5,42.33-28.08,58.38-45.91C326.1,303,341.05,280.86,351.27,256.39ZM155.45,315a3.48,3.48,0,0,1,.37-.69,381.52,381.52,0,0,1-27.36-32.06c-2.25,6.21-8,11.77-15.11,9.72-4.8-1.39-8.08-5.7-10.42-10.25-2.84,4.61-7,8.66-12.7,7.4-6.53-1.43-8.5-8.51-9.07-14.6-4.39,3.56-6.6,10-12.88,11.18A11,11,0,0,1,56.93,280c-4.74-8.94,2.54-22.18,11.2-25.64a.73.73,0,0,1,.81,1.15c-4.43,4.92-11,16.58-5,21.91,5.43,4.87,13-5.39,18-8.35a2.2,2.2,0,0,1,3.42,1.57c.6,3.54,1.64,11,6,11.77,4.17.71,7.49-5.27,9.26-8.38a2.86,2.86,0,0,1,5.18.2c1.34,3,3.28,7.4,6.35,9.12,5.45,3.05,7.4-1.46,10.47-5.29a3.5,3.5,0,0,1,1.92-1.28,173.42,173.42,0,0,1-16.74-29.16c-1.56-3.53-3-7.2-4.26-11-8.41-2.38-15.67-7.29-24.15-9.52A34.68,34.68,0,0,0,51.16,232c-13.95,9.36-21.54,26.71-26.09,42.31C21.69,286,17.68,299.9,20.16,312c4.51,22.14,26.81-4.75,32.34-13,3.77-5.62,11.89-.56,11.1,5.17-1.18,8.52-4.79,23.84,2.12,30.89,10.09,10.32,23.07-14.18,26-21.11,1.66-3.94,7.43-2.52,7.91,1.39.83,6.86,1.32,21.24,10.71,21.32,10.36.09,13.17-15.6,15.5-23.13,1.14-3.66,5.89-5.5,8.44-1.89a29.5,29.5,0,0,0,10.8,9.53C151.39,324.26,153.18,320.79,155.45,315Z" transform="translate(-11.81 -97.45)"/><path d="M436,216.48c1.39-2.41,6-2.36,6,1.06-.08,8.32-4.39,17.27-13.06,19.65-5.05,1.39-9.17-.29-12.48-3.29-1,6.41-3.64,12.67-9.09,16-6.37,3.89-11.88.82-16-3.9-2.22,9.12-6.42,19.18-16.71,18.46-5.51-.4-8.19-4.06-9.29-8.65l4.45-1.51c1.47,3.46,4,5.33,8.74,2.37,5.81-3.64,6.72-13.35,7.94-19.51.52-2.62,4.38-3.82,5.9-1.32,3.51,5.72,8,11.32,13.3,4.56,3.39-4.29,4.12-10.86,4.08-16.14a3.58,3.58,0,0,1,6.89-1.57C423.87,237.55,431.31,224.56,436,216.48Z" transform="translate(-11.81 -97.45)"/><path class="cls-3" d="M373.12,165.75c6.5,31.39-.11,65.45-11.42,95a225.61,225.61,0,0,1-25.36,47.44,23,23,0,0,0-5-19.28,17.66,17.66,0,0,0-5.57-4.45l.76-3c13.74,3.11,23.21-11.39,25-24A31.26,31.26,0,0,0,341,229.11c21.12-2.08,25.84-38,18.73-54-3.11-7-8.64-11.61-15.2-13C341,157.36,340,149.8,342.76,145c1.31-2.28,3.69-3.44,6.18-4.08a10.93,10.93,0,0,1,3.64-.44,2,2,0,0,0,.47,0,4,4,0,0,0-.71,2.62c0,.18,0,.35,0,.53a4.83,4.83,0,0,0,3.41,4.52l.29.1a4.63,4.63,0,0,0,5.15-2.07,7.92,7.92,0,0,0-.47-8l1.4-.84A90.11,90.11,0,0,1,373.12,165.75Z" transform="translate(-11.81 -97.45)"/><path class="cls-4" d="M362.15,137.31l-1.4.84a7.83,7.83,0,0,0-5-3.47c-4.64-1-10.55,1.18-14.29,3.91a14,14,0,0,0-5.4,9.32l-3-.51c1.21-6.24-.2-13.15-5.4-20.39-9.09-12.67-26.73-15.61-38.4-4.58-4.7,4.43-8.55,11-7,17.69,1.61,7.13,9.5,10.42,15.42,5.93,2.61-2,3-6.86-1-7.71-2.32-.5-4.66,0-5.56-2.32s1.19-5.21,2.37-6.81a16.46,16.46,0,0,1,17.34-6.52c10.39,2.63,18.73,14.92,16,25.59S313.45,165.83,302.18,170a89.89,89.89,0,0,1-9.05,2.86,33.85,33.85,0,0,0-5.12.26c4-4.23,5.95-9.94,2.25-15.71a12.72,12.72,0,0,0-9.69-5.81,10.77,10.77,0,0,0-6.95,1.82,3.64,3.64,0,0,0-2,1.52c-.62.52-1.22,1.07-1.86,1.66a4.14,4.14,0,0,0-1.21,3h-2a4.67,4.67,0,0,0-.63-1.74,7.53,7.53,0,0,0-10.06-2.73c-4,2.27-7.12,7.21-8.37,11.56-1.51,5.28.92,11.09,4.77,14.78a16.49,16.49,0,0,0,5.84,3.49c-11.78,3.13-26.8,0-35.46-7.62-5.7-5-8.38-12.47-5.24-19.66a22.13,22.13,0,0,1,9-9.74c2.31-1.31,4.53-2.12,7.09-1.14A3.56,3.56,0,0,1,236,148.4c-4.34.59-7.53,7.29-2.43,9.52,5.33,2.35,14.29,2,13.79-6C247,146.46,241,141,235.9,139.78c-8.19-1.94-16.43,3.91-21.22,11.3-8.85-24.13-47.2-41.71-64.71-17.77-4.14,5.65-6.06,14.34-5,22.11l-.47.06a18.86,18.86,0,0,0-.74-3.12c-4.21-12.94-19.33-11.87-26.67-2.42-3.42,4.39-5.84,11.53-4.12,17.1,1.93,6.3,8.77,7.37,12.55,2.12,2.32-3.22-.9-6.62-4-7-1.53-.1-1.67-.19-.44-.26,1.16.13,1.35-.47.61-1.8.74-1.61.46-3.66,1.47-5.42,2.74-4.77,9-7.27,12.93-2.22,3,3.8,1.4,10,0,14-2.11,6-8,16.26-15.25,18.52a24.06,24.06,0,0,0-14.53.65A21.71,21.71,0,0,0,92.7,201.28a74.86,74.86,0,0,1,.67-26.89c7-31.9,36.13-53.77,67.21-59.22a103,103,0,0,1,33-.38c21.89,4.88,43.37,14.74,58.09,30.36,2.3,2.43,7.29,2.18,8.81-1.09,10.6-22.84,34-37.36,59.35-35C338.89,110.81,353,122.2,362.15,137.31Z" transform="translate(-11.81 -97.45)"/><path class="cls-5" d="M353.82,178.63c6,14.75,2.14,44.18-16.23,48.07a27.65,27.65,0,0,0-5.84-2.74,28.89,28.89,0,0,0-14.42-.81c.42-.42.81-.84,1.2-1.26,6.15-6.91,8.52-14.3,7.72-21.31a16.34,16.34,0,0,0,15.31-6c5.83-7.56,2.21-18.16-8-17.81-3.23.11-5.51,4.34-2.84,6.76,8,7.19-7,11.57-8.63,3.83-1.13-5.39,4.92-13.16,9-16C340,165.24,350,169.15,353.82,178.63Z" transform="translate(-11.81 -97.45)"/><path class="cls-6" d="M331.51,231.18c13.66,5.81,16.41,21.88,9.79,34-3.1,5.66-9.89,11.4-15.94,5.6-5.64-5.41,1.2-13.06,4.18-18.05,1.49-2.48-.33-6.8-3.61-6.37-16.57,2.13-17.53,27.49-3.13,33.78a20.31,20.31,0,0,0,3.68,1.22l-.76,3c-9.61-4.85-22.59-.17-29,8.54a26.87,26.87,0,0,0-2.16,3.5l-3.72-.79a34.79,34.79,0,0,0,3.38-12.53,30.15,30.15,0,0,0-.47-7.63,1.62,1.62,0,0,0,0-1.43c-5-11.74-2.85-23.44,5.83-32.83C307.29,232.93,320.25,226.38,331.51,231.18Z" transform="translate(-11.81 -97.45)"/><path class="cls-7" d="M333.05,147.4l3,.51a22.43,22.43,0,0,0,2.5,13.84,24.15,24.15,0,0,0-6.7,1.53c-6.48,2.48-14.07,10.37-16.69,18.52a41.85,41.85,0,0,0-3.63-2.72,37.6,37.6,0,0,0-9.37-4.59c.5-.14,1-.29,1.51-.45C317.75,169.65,330.63,159.86,333.05,147.4Z" transform="translate(-11.81 -97.45)"/><path class="cls-8" d="M312.74,291c9.37-3.06,15.78,4.45,15.3,13.48-.9,16.95-21.65,34.6-36.89,24.16a19.81,19.81,0,0,0-3.41-4,24.29,24.29,0,0,0-18.42-6,60.52,60.52,0,0,0,8.12-5.86,53.64,53.64,0,0,0,13.37-17.1l3.72.79c-2,3.93-3.27,8.78-2,12.69,2.34,7.22,10.56,7.2,15.07,2.13a4.4,4.4,0,0,0-3-7.44c-.59,0-1.17-.07-1.75-.11a.06.06,0,0,0,0-.05,23.26,23.26,0,0,1,.94-4.17A14.87,14.87,0,0,1,312.74,291Z" transform="translate(-11.81 -97.45)"/><path class="cls-9" d="M319.38,197.68a15.5,15.5,0,0,1,.5,6.71c-1.14,7.68-7.29,14.2-13.62,18.2s-14.77,6.42-22.08,3.54c-7.09-2.78-8.72-15.62,1-13.9,4.08.73,7.14-3.76,4.15-7C275.24,189.82,260,217.62,272.44,230c6.26,6.2,14.89,7.17,23.28,5.22-.36.36-.72.72-1,1.07-5.46,6-9.59,14.21-10.05,22.24a40,40,0,0,0-10.53-7.82,56,56,0,0,0-42.3-3.93c.35-.47.68-1,1-1.44a.83.83,0,0,0,.56-.59,2.85,2.85,0,0,1,.11-.39,48.21,48.21,0,0,0,7.21-18.91c12.34-26.71,36-58.4,63.46-43.72a40.05,40.05,0,0,1,10.22,7.66,12.3,12.3,0,0,0,4,7.49C318.7,197.15,319,197.42,319.38,197.68Z" transform="translate(-11.81 -97.45)"/><path class="cls-10" d="M315.25,335.12q-4.33,5-8.83,9.73c-10.51,11.13-21.57,22-32.79,32.45-4.92,4.57-10.85,10-17.7,11.34a7.54,7.54,0,0,1-.83.12,2.21,2.21,0,0,0-1.26.08c-.34-.33-.7-.64-1-.95-1.54-4.08-4.35-18.59-4.52-20.72-.75-10.32.23-21.71,5.52-30.82,6.05-10.4,22.08-16.28,30.81-5.42,4.44,5.52,4.1,14.84-2.9,18.5-1.92,1-4.83,0-6.65.05.05-.65.07-1.28.11-1.61.35-3.36-3.41-5.44-6.25-4.8a8.08,8.08,0,0,0-4,13.73c4.37,4.21,12.87,3.16,18,1.2,9.31-3.53,12.88-13,11.23-21.69C301,339.3,308.46,338.42,315.25,335.12Z" transform="translate(-11.81 -97.45)"/><path class="cls-11" d="M236.49,252.39c20.58-4.87,55.6,6,51.15,32.76-2.87,17.25-21.43,31.9-38,35-9,1.66-17.7-1-20.7-10.33-2.76-8.61,1.36-17.29,8.78-22a18.36,18.36,0,0,1,11.47-3c1.72.14,6.52,1.58,8.68,3.75-2.38,1.66-3.54,5.07-.85,7.7a13.46,13.46,0,0,0,4.75,3c2.59,1.08,5.66-1.15,6.37-3.58,4.7-16.34-19.62-20.36-30.17-15.59-12.93,5.82-20.2,20.25-14.62,33.75,5.4,13.07,17.17,15,29,12.15a25.39,25.39,0,0,0-2.81,2.87c-9.38,11.2-11.11,27.75-9.34,41.74a78.51,78.51,0,0,0,1.54,7.84c-.32-.31-.66-.59-1-.89-5.49-5-10.27-10.95-14.86-16.77C215.82,347.94,207,333.6,202.7,317.85,195.49,291.67,208,259.13,236.49,252.39Z" transform="translate(-11.81 -97.45)"/><path class="cls-12" d="M287.08,160.67c3.53,6.79-3.54,12.77-9.24,14.88a1.9,1.9,0,0,0-.81.58,47.89,47.89,0,0,0-10.33,6.11.81.81,0,0,0-.6-.25c-4.34.18-7.1.25-10.32-3.08-2.57-2.66-4.64-6.72-3.89-10.49a16.78,16.78,0,0,1,3.92-7.45,15.66,15.66,0,0,1,1.91-1.38c0,.17,0,.33,0,.51.75,6.75,9.49,4.41,8.81-.43h2a3.8,3.8,0,0,0,2,3.57c4.2,2,7.49-.1,8.91-4.28a4.14,4.14,0,0,0,.15-1.89,5.35,5.35,0,0,1,1.67-.19A7.28,7.28,0,0,1,287.08,160.67Z" transform="translate(-11.81 -97.45)"/><path class="cls-13" d="M229.62,188.55c9,3.6,19.63,4.35,28.33,1.79a102.39,102.39,0,0,0-16.87,24.9,41.46,41.46,0,0,0-2.21-10.67A51.89,51.89,0,0,0,229.62,188.55Z" transform="translate(-11.81 -97.45)"/><path class="cls-14" d="M232.71,206.25a40.2,40.2,0,0,1,.5,27.63c-2.19,6.16-6,10.91-9.85,15.7a36.88,36.88,0,0,0,4.25-13c.86-7.34-3.27-17.31-12.19-16.52-6.41.56-10.57,8.21-10.84,14.07-.31,6.31,7.85,12.55,11,4.65a3.48,3.48,0,0,0-1.59-4,10.28,10.28,0,0,0-2-.78l-.2,0a8.63,8.63,0,0,1,.34-3.21c1.42-4.9,6.24-6.05,8.88-1,3.88,7.39-2.53,19.83-7.92,26.92a56.74,56.74,0,0,0-19.34,30.92c-4.57-8.25-11.79-14.36-22-16.22a25.16,25.16,0,0,0-9.56.07,17.83,17.83,0,0,0,2-7.36c.27-6.25-3.13-13.52-9.57-15.37a8.81,8.81,0,0,0-10.63,12c1.47,3.56,6.8,5.37,9,1.22.31-.58.54-1,.7-1.34a6.43,6.43,0,0,1,1.37,5.74c-.89,4.5-5.74,7.73-9.77,9-8.94,2.9-16.86-2.53-18.07-11.62-1.38-10.24,4.17-23.14,12.75-30.64a25.25,25.25,0,0,0,8.25-4.95,16.54,16.54,0,0,1,1.68-.56.69.69,0,0,0,.1-1.26,16.17,16.17,0,0,0,1.14-1.45c5.68,13.62,20,24.15,34.87,18.24,9.84-3.92,17-13.45,15.81-24.24-1.07-10-8.34-16.73-18.16-11.85-6.29,3.14-.82,11.92,5.39,9.29,3.22-1.39,3,8.07,2.58,9.53-1.33,4.92-6.08,9-10.72,10.58-10.92,3.78-21.28-5.75-24.5-15.6a26.45,26.45,0,0,1-1.28-7.68c0-.7.07-1.41.07-2.16,1.19-16.5,18.12-30.55,33.94-33.11C207.87,175,226.28,189.3,232.71,206.25Z" transform="translate(-11.81 -97.45)"/><path class="cls-15" d="M210.18,152.75a28.24,28.24,0,0,1,1.51,4.34,20.51,20.51,0,0,0-1.14,4.9,22.35,22.35,0,0,0,3,13.73,42.22,42.22,0,0,0-22-4.66c-20.34,1.38-41.43,18.82-42.89,39.81a28.73,28.73,0,0,0,.3,6.27c-5.61,11.19-21.21,13.36-33.47,8.66-8.1-3.11-15.82-10-15.59-19.33A13.2,13.2,0,0,1,108.61,194a10.58,10.58,0,0,1,5.51-.52,15.65,15.65,0,0,1,1.7.43c-1.35,3.84,1.41,9,6.18,7.34,5.92-2.1,9.1-8.72,4.51-13.21a27.94,27.94,0,0,0,8.25-6.36c6-6.67,11.15-16.87,9.78-26.19l.47-.06c1.19,8.49,6,15.92,15.49,17.15,8.21,1.06,18.51-4.5,20.13-13.09,1.76-9.43-6.76-16-15.49-14.69-3.17.5-4.51,5.45-2,7.48,1.32,1.06,5,2.91,5.66,4.4,1.38,3.33-3.57,6.27-6.51,6.65-6.83.86-10.74-7.16-11.24-13-.91-10.58,7.26-20.1,17.48-21.78C184.71,125.93,203.62,137.49,210.18,152.75Z" transform="translate(-11.81 -97.45)"/><path class="cls-16" d="M203.44,341.22a160.07,160.07,0,0,0,19.14,27.42,767.14,767.14,0,0,1-61.24-55.29c-2.92-3-5.82-5.94-8.65-9l.54-.5a18.14,18.14,0,0,0,12.7,5.76c12.59,0,20.31-17.85,6.16-22.27-6.26-1.94-10.29,7.4-4.52,10.61,2,2.45.56,3.51-4.22,3.15a11.22,11.22,0,0,1-4.88-2.82,13,13,0,0,1-4-9.43c.37-6.58,6-10.32,12.06-10.45,12.54-.3,20.77,9.37,25.76,19.73C191.54,313,196.22,327.93,203.44,341.22Z" transform="translate(-11.81 -97.45)"/><path class="cls-17" d="M153.23,303.86l-.54.5c-6.9-7.35-13.53-15-19.78-22.88.34.15.64.33,1,.46a22.16,22.16,0,0,0,14.48.41,21.42,21.42,0,0,0-1.16,3.73C146,292.34,148.6,299.17,153.23,303.86Z" transform="translate(-11.81 -97.45)"/><path class="cls-18" d="M98.77,224c8.1,8.88,22.15,12.81,34.22,11-8,8.12-13,20.53-11.62,30.87-3.74-5.46-7.27-11-10.56-16.78A172.73,172.73,0,0,1,98.77,224Z" transform="translate(-11.81 -97.45)"/><path d="M386.86,173.9c9.24,76.1-35.25,146.73-87.68,197.39-11,10.61-21.75,24.91-36.79,29.91-18.06,6-32.21-9.38-44.77-20.07-26.78-22.79-53.37-47-76.42-73.62-34.57-39.94-78.88-105.13-45.58-158.3,15.16-24.19,41.65-38.34,69.63-41.9,29.77-6,66,4.16,89,24.71,14.87-24.57,43.89-38.51,72.65-33.58C363.34,104.68,382.73,139.89,386.86,173.9ZM361.7,260.71c11.31-29.51,17.92-63.57,11.42-95a90.11,90.11,0,0,0-11-28.44c-9.16-15.11-23.26-26.5-42.33-28.26-25.39-2.35-48.75,12.17-59.35,35-1.52,3.27-6.51,3.52-8.81,1.09-14.72-15.62-36.2-25.48-58.09-30.36a103,103,0,0,0-33,.38c-31.08,5.45-60.23,27.32-67.21,59.22a74.86,74.86,0,0,0-.67,26.89,21.71,21.71,0,0,1,13.64-15.68,24.06,24.06,0,0,1,14.53-.65c7.24-2.26,13.14-12.53,15.25-18.52,1.41-4,3-10.21,0-14-3.94-5-10.19-2.55-12.93,2.22-1,1.76-.73,3.81-1.47,5.42.74,1.33.55,1.93-.61,1.8-1.23.07-1.09.16.44.26,3.1.42,6.32,3.82,4,7-3.78,5.25-10.62,4.18-12.55-2.12-1.72-5.57.7-12.71,4.12-17.1,7.34-9.45,22.46-10.52,26.67,2.42a18.86,18.86,0,0,1,.74,3.12c1.37,9.32-3.82,19.52-9.78,26.19a27.94,27.94,0,0,1-8.25,6.36c4.59,4.49,1.41,11.11-4.51,13.21-4.77,1.7-7.53-3.5-6.18-7.34a15.65,15.65,0,0,0-1.7-.43,10.58,10.58,0,0,0-5.51.52,13.2,13.2,0,0,0-8.75,12.48c-.23,9.34,7.49,16.22,15.59,19.33,12.26,4.7,27.86,2.53,33.47-8.66a28.73,28.73,0,0,1-.3-6.27c1.46-21,22.55-38.43,42.89-39.81a42.22,42.22,0,0,1,22,4.66,22.35,22.35,0,0,1-3-13.73,20.51,20.51,0,0,1,1.14-4.9,28.24,28.24,0,0,0-1.51-4.34l4.5-1.67c4.79-7.39,13-13.24,21.22-11.3,5,1.2,11.11,6.68,11.44,12.11.5,8.05-8.46,8.38-13.79,6-5.1-2.23-1.91-8.93,2.43-9.52a3.56,3.56,0,0,0-2.53-1.53c-2.56-1-4.78-.17-7.09,1.14a22.13,22.13,0,0,0-9,9.74c-3.14,7.19-.46,14.66,5.24,19.66,8.66,7.58,23.68,10.75,35.46,7.62a16.49,16.49,0,0,1-5.84-3.49c-3.85-3.69-6.28-9.5-4.77-14.78,1.25-4.35,4.35-9.29,8.37-11.56a7.53,7.53,0,0,1,10.06,2.73,4.67,4.67,0,0,1,.63,1.74c.68,4.84-8.06,7.18-8.81.43,0-.18,0-.34,0-.51a15.66,15.66,0,0,0-1.91,1.38,16.78,16.78,0,0,0-3.92,7.45c-.75,3.77,1.32,7.83,3.89,10.49,3.22,3.33,6,3.26,10.32,3.08a.81.81,0,0,1,.6.25A47.89,47.89,0,0,1,277,176.13a1.9,1.9,0,0,1,.81-.58c5.7-2.11,12.77-8.09,9.24-14.88a7.28,7.28,0,0,0-5.79-3.8,5.35,5.35,0,0,0-1.67.19,4.14,4.14,0,0,1-.15,1.89c-1.42,4.18-4.71,6.25-8.91,4.28a3.8,3.8,0,0,1-2-3.57,4.14,4.14,0,0,1,1.21-3c.64-.59,1.24-1.14,1.86-1.66a3.64,3.64,0,0,1,2-1.52,10.77,10.77,0,0,1,6.95-1.82,12.72,12.72,0,0,1,9.69,5.81c3.7,5.77,1.79,11.48-2.25,15.71a33.85,33.85,0,0,1,5.12-.26,89.89,89.89,0,0,0,9.05-2.86l1.51,4c-.5.16-1,.31-1.51.45a37.6,37.6,0,0,1,9.37,4.59,41.85,41.85,0,0,1,3.63,2.72c2.62-8.15,10.21-16,16.69-18.52a24.15,24.15,0,0,1,6.7-1.53,22.43,22.43,0,0,1-2.5-13.84,14,14,0,0,1,5.4-9.32c3.74-2.73,9.65-4.86,14.29-3.91a7.83,7.83,0,0,1,5,3.47,7.92,7.92,0,0,1,.47,8,4.63,4.63,0,0,1-5.15,2.07l-.29-.1a4.83,4.83,0,0,1-3.41-4.52c0-.18,0-.35,0-.53a4,4,0,0,1,.71-2.62,2,2,0,0,1-.47,0,10.93,10.93,0,0,0-3.64.44c-2.49.64-4.87,1.8-6.18,4.08-2.78,4.85-1.78,12.41,1.76,17.16,6.56,1.36,12.09,5.95,15.2,13,7.11,16,2.39,51.95-18.73,54a31.26,31.26,0,0,1,10.53,28.24c-1.83,12.64-11.3,27.14-25,24a20.31,20.31,0,0,1-3.68-1.22c-14.4-6.29-13.44-31.65,3.13-33.78,3.28-.43,5.1,3.89,3.61,6.37-3,5-9.82,12.64-4.18,18.05,6.05,5.8,12.84.06,15.94-5.6,6.62-12.14,3.87-28.21-9.79-34-11.26-4.8-24.22,1.75-31.91,10.07-8.68,9.39-10.81,21.09-5.83,32.83a1.62,1.62,0,0,1,0,1.43,30.15,30.15,0,0,1,.47,7.63,34.79,34.79,0,0,1-3.38,12.53,53.64,53.64,0,0,1-13.37,17.1,60.52,60.52,0,0,1-8.12,5.86,24.29,24.29,0,0,1,18.42,6,19.81,19.81,0,0,1,3.41,4c15.24,10.44,36-7.21,36.89-24.16.48-9-5.93-16.54-15.3-13.48a14.87,14.87,0,0,0-9,8.49,23.26,23.26,0,0,0-.94,4.17.06.06,0,0,1,0,.05c.58,0,1.16.09,1.75.11a4.4,4.4,0,0,1,3,7.44c-4.51,5.07-12.73,5.09-15.07-2.13-1.25-3.91,0-8.76,2-12.69a26.87,26.87,0,0,1,2.16-3.5c6.44-8.71,19.42-13.39,29-8.54a17.66,17.66,0,0,1,5.57,4.45,23,23,0,0,1,5,19.28A225.61,225.61,0,0,0,361.7,260.71Zm-24.11-34c18.37-3.89,22.24-33.32,16.23-48.07-3.87-9.48-13.87-13.39-22.77-7.21-4,2.81-10.09,10.58-9,16,1.65,7.74,16.63,3.36,8.63-3.83-2.67-2.42-.39-6.65,2.84-6.76,10.21-.35,13.83,10.25,8,17.81a16.34,16.34,0,0,1-15.31,6c.8,7-1.57,14.4-7.72,21.31-.39.42-.78.84-1.2,1.26a28.89,28.89,0,0,1,14.42.81A27.65,27.65,0,0,1,337.59,226.7Zm-17.71-22.31a15.5,15.5,0,0,0-.5-6.71c-.34-.26-.68-.53-1-.82a12.3,12.3,0,0,1-4-7.49,40.05,40.05,0,0,0-10.22-7.66c-27.44-14.68-51.12,17-63.46,43.72a48.21,48.21,0,0,1-7.21,18.91,2.85,2.85,0,0,0-.11.39.83.83,0,0,1-.56.59c-.32.48-.65,1-1,1.44a56,56,0,0,1,42.3,3.93,40,40,0,0,1,10.53,7.82c.46-8,4.59-16.27,10.05-22.24.32-.35.68-.71,1-1.07-8.39,2-17,1-23.28-5.22-12.47-12.36,2.8-40.16,16.86-24.79,3,3.28-.07,7.77-4.15,7-9.69-1.72-8.06,11.12-1,13.9,7.31,2.88,15.73.5,22.08-3.54S318.74,212.07,319.88,204.39ZM306.42,344.85q4.5-4.78,8.83-9.73c-6.79,3.3-14.29,4.18-21.08,1.19,1.65,8.68-1.92,18.16-11.23,21.69-5.13,2-13.63,3-18-1.2a8.08,8.08,0,0,1,4-13.73c2.84-.64,6.6,1.44,6.25,4.8,0,.33-.06,1-.11,1.61,1.82-.07,4.73,1,6.65-.05,7-3.66,7.34-13,2.9-18.5-8.73-10.86-24.76-5-30.81,5.42-5.29,9.11-6.27,20.5-5.52,30.82.17,2.13,3,16.64,4.52,20.72.34.31.7.62,1,.95a2.21,2.21,0,0,1,1.26-.08,7.54,7.54,0,0,0,.83-.12c6.85-1.3,12.78-6.77,17.7-11.34C284.85,366.87,295.91,356,306.42,344.85Zm-18.78-59.7c4.45-26.76-30.57-37.63-51.15-32.76-28.48,6.74-41,39.28-33.79,65.46,4.33,15.75,13.12,30.09,23.17,42.83,4.59,5.82,9.37,11.76,14.86,16.77.34.3.68.58,1,.89a78.51,78.51,0,0,1-1.54-7.84c-1.77-14,0-30.54,9.34-41.74a25.39,25.39,0,0,1,2.81-2.87c-11.78,2.88-23.55.92-29-12.15-5.58-13.5,1.69-27.93,14.62-33.75,10.55-4.77,34.87-.75,30.17,15.59-.71,2.43-3.78,4.66-6.37,3.58a13.46,13.46,0,0,1-4.75-3c-2.69-2.63-1.53-6,.85-7.7-2.16-2.17-7-3.61-8.68-3.75a18.36,18.36,0,0,0-11.47,3c-7.42,4.74-11.54,13.42-8.78,22,3,9.37,11.73,12,20.7,10.33C266.21,317.05,284.77,302.4,287.64,285.15ZM258,190.34c-8.7,2.56-19.33,1.81-28.33-1.79a51.89,51.89,0,0,1,9.25,16,41.46,41.46,0,0,1,2.21,10.67A102.39,102.39,0,0,1,258,190.34Zm-24.74,43.54a40.2,40.2,0,0,0-.5-27.63C226.28,189.3,207.87,175,189.12,178c-15.82,2.56-32.75,16.61-33.94,33.11,0,.75,0,1.46-.07,2.16a26.45,26.45,0,0,0,1.28,7.68c3.22,9.85,13.58,19.38,24.5,15.6,4.64-1.6,9.39-5.66,10.72-10.58.4-1.46.64-10.92-2.58-9.53-6.21,2.63-11.68-6.15-5.39-9.29,9.82-4.88,17.09,1.83,18.16,11.85,1.16,10.79-6,20.32-15.81,24.24-14.86,5.91-29.19-4.62-34.87-18.24a16.17,16.17,0,0,1-1.14,1.45.69.69,0,0,1-.1,1.26,16.54,16.54,0,0,0-1.68.56A25.25,25.25,0,0,1,140,233.2c-8.58,7.5-14.13,20.4-12.75,30.64,1.21,9.09,9.13,14.52,18.07,11.62,4-1.29,8.88-4.52,9.77-9a6.43,6.43,0,0,0-1.37-5.74c-.16.32-.39.76-.7,1.34-2.18,4.15-7.51,2.34-9-1.22a8.81,8.81,0,0,1,10.63-12c6.44,1.85,9.84,9.12,9.57,15.37a17.83,17.83,0,0,1-2,7.36,25.16,25.16,0,0,1,9.56-.07c10.2,1.86,17.42,8,22,16.22a56.74,56.74,0,0,1,19.34-30.92c5.39-7.09,11.8-19.53,7.92-26.92-2.64-5-7.46-3.87-8.88,1a8.63,8.63,0,0,0-.34,3.21l.2,0a10.28,10.28,0,0,1,2,.78,3.48,3.48,0,0,1,1.59,4c-3.14,7.9-11.3,1.66-11-4.65.27-5.86,4.43-13.51,10.84-14.07,8.92-.79,13.05,9.18,12.19,16.52a36.88,36.88,0,0,1-4.25,13C227.23,244.79,231,240,233.21,233.88ZM222.58,368.64a160.07,160.07,0,0,1-19.14-27.42c-7.22-13.29-11.9-28.22-11.15-43.08-5-10.36-13.22-20-25.76-19.73-6.05.13-11.69,3.87-12.06,10.45a13,13,0,0,0,4,9.43,11.22,11.22,0,0,0,4.88,2.82c4.78.36,6.2-.7,4.22-3.15-5.77-3.21-1.74-12.55,4.52-10.61,14.15,4.42,6.43,22.31-6.16,22.27a18.14,18.14,0,0,1-12.7-5.76c-4.63-4.69-7.24-11.52-6-17.78a21.42,21.42,0,0,1,1.16-3.73,22.16,22.16,0,0,1-14.48-.41c-.36-.13-.66-.31-1-.46,6.25,7.92,12.88,15.53,19.78,22.88,2.83,3.05,5.73,6,8.65,9A767.14,767.14,0,0,0,222.58,368.64ZM133,235c-12.07,1.8-26.12-2.13-34.22-11a172.73,172.73,0,0,0,12,25.1c3.29,5.75,6.82,11.32,10.56,16.78C120,255.52,125,243.11,133,235Z" transform="translate(-11.81 -97.45)"/><path d="M327.65,127c5.2,7.24,6.61,14.15,5.4,20.39-2.42,12.46-15.3,22.25-29.36,26.64l-1.51-4c11.27-4.21,21.89-11.07,24.64-21.76s-5.61-23-16-25.59a16.46,16.46,0,0,0-17.34,6.52c-1.18,1.6-3.24,4.61-2.37,6.81s3.24,1.82,5.56,2.32c3.93.85,3.58,5.74,1,7.71-5.92,4.49-13.81,1.2-15.42-5.93-1.52-6.68,2.33-13.26,7-17.69C300.92,111.4,318.56,114.34,327.65,127Z" transform="translate(-11.81 -97.45)"/><path d="M214.68,151.08l-4.5,1.67c-6.56-15.26-25.47-26.82-41.66-24.17-10.22,1.68-18.39,11.2-17.48,21.78.5,5.8,4.41,13.82,11.24,13,2.94-.38,7.89-3.32,6.51-6.65-.62-1.49-4.34-3.34-5.66-4.4-2.5-2-1.16-7,2-7.48,8.73-1.36,17.25,5.26,15.49,14.69-1.62,8.59-11.92,14.15-20.13,13.09-9.49-1.23-14.3-8.66-15.49-17.15-1.1-7.77.82-16.46,5-22.11C167.48,109.37,205.83,127,214.68,151.08Z" transform="translate(-11.81 -97.45)"/></svg>